<svg xmlns="http://www.w3.org/2000/svg" viewBox="0 0 384 512"><!--!Font Awesome Pro 6.7.2 by @fontawesome - https://fontawesome.com License - https://fontawesome.com/license (Commercial License) Copyright 2025 Fonticons, Inc.--><path d="M384 121.9V128H256V0h6.1c6.4 0 12.5 2.5 17 7l97.9 97.9A24 24 0 0 1 384 121.9zM248 160h136v328c0 13.3-10.7 24-24 24H24c-13.3 0-24-10.7-24-24V24C0 10.7 10.7 0 24 0h200v136c0 13.2 10.8 24 24 24zm65.3 109.7l-28.2-28.4c-4.7-4.7-12.3-4.7-17-.1L162.1 346.5l-46-46.4c-4.7-4.7-12.3-4.7-17-.1L70.8 328.2c-4.7 4.7-4.7 12.3-.1 17l82.6 83.3c4.7 4.7 12.3 4.7 17 .1l143-141.8c4.7-4.7 4.7-12.3 .1-17z"/></svg>