<svg xmlns="http://www.w3.org/2000/svg" viewBox="0 0 448 512"><!--!Font Awesome Free 6.6.0 by @fontawesome - https://fontawesome.com License - https://fontawesome.com/license/free Copyright 2024 Fonticons, Inc.--><path d="M400 32H48C21.5 32 0 53.5 0 80v352c0 26.5 21.5 48 48 48h352c26.5 0 48-21.5 48-48V80c0-26.5-21.5-48-48-48zM112 416c-26.5 0-48-21.5-48-48s21.5-48 48-48 48 21.5 48 48-21.5 48-48 48zm157.5 0h-34.3c-6 0-11.1-4.6-11.4-10.6-5.2-80.1-69.2-143.9-149.1-149.1-6-.4-10.6-5.4-10.6-11.4v-34.3c0-6.5 5.5-11.8 12-11.4 110.5 6 199 94.5 205 205 .4 6.5-4.9 12-11.4 12zm103 0h-34.3c-6.2 0-11.2-4.9-11.4-11-5.6-136.5-115.2-246.2-251.8-251.8C68.9 152.9 64 147.9 64 141.8V107.4c0-6.5 5.3-11.7 11.8-11.4 167.8 6 302.2 141.2 308.2 308.2 .2 6.4-5 11.8-11.4 11.8z"/></svg>