<?xml version="1.0" encoding="UTF-8" standalone="no"?>
<svg
   xmlns:dc="http://purl.org/dc/elements/1.1/"
   xmlns:cc="http://creativecommons.org/ns#"
   xmlns:rdf="http://www.w3.org/1999/02/22-rdf-syntax-ns#"
   xmlns:svg="http://www.w3.org/2000/svg"
   xmlns="http://www.w3.org/2000/svg"
   xmlns:sodipodi="http://sodipodi.sourceforge.net/DTD/sodipodi-0.dtd"
   xmlns:inkscape="http://www.inkscape.org/namespaces/inkscape"
   viewBox="0 0 512 512"
   id="svg4205"
   version="1.1"
   inkscape:version="0.91 r13725"
   sodipodi:docname="rss.svg"
   width="512"
   height="512"
   style="fill:#ffff00">
  <metadata
     id="metadata4213">
    <rdf:RDF>
      <cc:Work
         rdf:about="">
        <dc:format>image/svg+xml</dc:format>
        <dc:type
           rdf:resource="http://purl.org/dc/dcmitype/StillImage" />
        <dc:title></dc:title>
      </cc:Work>
    </rdf:RDF>
  </metadata>
  <defs
     id="defs4211" />
  <sodipodi:namedview
     pagecolor="#ffffff"
     bordercolor="#666666"
     borderopacity="1"
     objecttolerance="10"
     gridtolerance="10"
     guidetolerance="10"
     inkscape:pageopacity="0"
     inkscape:pageshadow="2"
     inkscape:window-width="1855"
     inkscape:window-height="1056"
     id="namedview4209"
     showgrid="false"
     fit-margin-top="0"
     fit-margin-left="0"
     fit-margin-right="0"
     fit-margin-bottom="0"
     inkscape:zoom="0.11218262"
     inkscape:cx="-1279.735"
     inkscape:cy="1021.5402"
     inkscape:window-x="65"
     inkscape:window-y="24"
     inkscape:window-maximized="1"
     inkscape:current-layer="svg4205" />
  <rect
     style="opacity:1;fill:#ff6600;fill-opacity:1;stroke:none;stroke-width:1;stroke-linecap:square;stroke-miterlimit:4;stroke-dasharray:none;stroke-dashoffset:0;stroke-opacity:1"
     id="rect4215"
     width="512"
     height="512"
     x="0"
     y="0"
     rx="75"
     ry="75" />
  <path
     d="m 175.50414,391.69038 c 0,30.0029 -24.32195,54.32486 -54.32485,54.32486 -30.002909,0 -54.324014,-24.32196 -54.324014,-54.32486 0,-30.0029 24.321954,-54.32485 54.324864,-54.32485 30.0029,0 54.324,24.3228 54.324,54.32485 z m 149.00929,40.08135 C 317.42688,300.62726 212.38322,195.45127 81.098786,188.35709 c -7.74906,-0.41906 -14.24351,5.80734 -14.24351,13.56742 l 0,40.77609 c 0,7.1383 5.505353,13.12463 12.62838,13.58779 94.865124,6.17889 170.906014,82.03061 177.097624,177.09762 0.46401,7.12303 6.45034,12.62838 13.58779,12.62838 l 40.77609,0 c 7.76093,8.5e-4 13.98732,-6.4936 13.56827,-14.24266 z m 122.36389,0.2443 C 439.75684,233.67064 280.16862,73.148452 80.854481,65.99319 73.194491,65.718346 66.855276,71.906566 66.855276,79.570798 l 0,40.775242 c 0,7.31643 5.79801,13.27138 13.108508,13.57167 162.173786,6.64969 292.341036,136.84153 298.989866,298.98987 0.29945,7.3105 6.25439,13.10851 13.57167,13.10851 l 40.77524,0 c 7.66339,-8.5e-4 13.85161,-6.34007 13.57676,-14.00006 z"
     id="path4207"
     inkscape:connector-curvature="0"
     style="fill:#ffffff" />
</svg>
