<?xml version="1.0" encoding="UTF-8" standalone="no"?>
<!-- Created with Inkscape (http://www.inkscape.org/) -->

<svg
   width="64"
   height="64"
   viewBox="0 0 64 64"
   version="1.1"
   id="svg1"
   inkscape:version="1.3.2 (091e20e, 2023-11-25)"
   sodipodi:docname="favicon.svg"
   xml:space="preserve"
   xmlns:inkscape="http://www.inkscape.org/namespaces/inkscape"
   xmlns:sodipodi="http://sodipodi.sourceforge.net/DTD/sodipodi-0.dtd"
   xmlns="http://www.w3.org/2000/svg"
   xmlns:svg="http://www.w3.org/2000/svg"><sodipodi:namedview
     id="namedview1"
     pagecolor="#ffffff"
     bordercolor="#000000"
     borderopacity="0.25"
     inkscape:showpageshadow="2"
     inkscape:pageopacity="0.0"
     inkscape:pagecheckerboard="0"
     inkscape:deskcolor="#d1d1d1"
     inkscape:document-units="mm"
     inkscape:zoom="18.034445"
     inkscape:cx="32.188404"
     inkscape:cy="44.387283"
     inkscape:window-width="1392"
     inkscape:window-height="942"
     inkscape:window-x="1965"
     inkscape:window-y="25"
     inkscape:window-maximized="0"
     inkscape:current-layer="layer1" /><defs
     id="defs1" /><g
     inkscape:label="Layer 1"
     inkscape:groupmode="layer"
     id="layer1"><rect
       style="fill:#ffffff;fill-opacity:1;stroke:#000000;stroke-width:2.64009;stroke-dasharray:none;stroke-opacity:0.5"
       id="rect2"
       width="61.359913"
       height="55.312012"
       x="1.3200428"
       y="4.558043"
       rx="5.7106934"
       ry="5.9929876" /><path
       id="rect3"
       style="fill:#ec4260;stroke-width:2.42447;stroke-linecap:square"
       d="M 8.7929495,4.6360356 H 55.580402 c 3.519722,0 6.22577,2.8575106 6.21557,5.2371613 L 61.724592,30.273427 2.2148971,30.265547 2.6320887,9.7283159 C 2.6802617,7.3568891 5.273229,4.6360356 8.7929495,4.6360356 Z"
       sodipodi:nodetypes="sssccss" /><path
       style="font-weight:900;font-stretch:condensed;font-size:15.2242px;line-height:1;font-family:'Helvetica Neue';-inkscape-font-specification:'Helvetica Neue Heavy Condensed';fill:#ffffff;stroke-width:0.380607"
       d="m 7.8735134,11.051268 v 10.870079 h 2.8317016 v -4.475915 h 1.735558 v 4.475915 h 2.831702 V 11.051268 h -2.831702 v 3.98874 h -1.735558 v -3.98874 z m 8.7386816,0 v 10.870079 h 6.576855 v -2.314079 h -3.745154 v -2.161836 h 3.379773 v -2.222733 h -3.379773 v -1.857353 h 3.608136 v -2.314078 z m 7.612101,0 v 10.870079 h 6.318043 v -2.314079 h -3.486342 v -8.556 z m 7.048794,0 v 10.870079 h 6.318043 v -2.314079 h -3.486342 v -8.556 z m 9.652134,5.435039 q 0,-1.096142 0.03045,-1.81168 0.03045,-0.730761 0.121794,-1.157039 0.106569,-0.426277 0.289259,-0.593744 0.197915,-0.167466 0.517623,-0.167466 0.319708,0 0.502399,0.167466 0.197914,0.167467 0.28926,0.593744 0.106569,0.426278 0.137017,1.157039 0.03045,0.715538 0.03045,1.81168 0,1.096143 -0.03045,1.826904 -0.03045,0.715538 -0.137017,1.141815 -0.09135,0.426278 -0.28926,0.593744 -0.182691,0.167466 -0.502399,0.167466 -0.319708,0 -0.517623,-0.167466 -0.18269,-0.167466 -0.289259,-0.593744 -0.09135,-0.426277 -0.121794,-1.141815 -0.03045,-0.730761 -0.03045,-1.826904 z m -2.923047,0 q 0,1.52242 0.197915,2.603338 0.197914,1.065694 0.65464,1.750783 0.456726,0.669865 1.202712,0.959125 0.745986,0.28926 1.826904,0.28926 1.080918,0 1.826904,-0.28926 0.745986,-0.28926 1.202712,-0.959125 0.456726,-0.685089 0.654641,-1.750783 0.197914,-1.080918 0.197914,-2.603338 0,-1.52242 -0.197914,-2.588114 -0.197915,-1.080918 -0.654641,-1.750783 -0.456726,-0.685089 -1.202712,-0.989573 -0.745986,-0.319708 -1.826904,-0.319708 -1.080918,0 -1.826904,0.319708 -0.745986,0.304484 -1.202712,0.989573 -0.456726,0.669865 -0.65464,1.750783 -0.197915,1.065694 -0.197915,2.588114 z"
       id="text1"
       transform="scale(1.1887018,0.8412539)"
       aria-label="HELLO" /><path
       style="font-weight:bold;font-size:8.89628px;line-height:1;font-family:'Helvetica Neue';-inkscape-font-specification:'Helvetica Neue Bold';fill:#ffffff;stroke-width:0.667223"
       d="m 5.7883281,21.141229 v 6.351945 h 1.3077532 v -4.457037 h 0.017793 l 1.5568491,4.457037 h 1.0764499 l 1.5568492,-4.501518 h 0.01779 v 4.501518 h 1.307754 V 21.141229 H 10.66349 L 9.2578774,25.509303 H 9.2400848 L 7.754406,21.141229 Z m 9.7147349,3.878779 v 2.473166 h 1.396716 v -2.437581 l 2.357514,-3.914364 h -1.556849 l -1.476782,2.508752 -1.485679,-2.508752 h -1.565746 z m 6.76117,-3.878779 v 6.351945 h 1.307753 v -4.252422 h 0.01779 l 2.642196,4.252422 h 1.396716 v -6.351945 h -1.307754 v 4.261319 h -0.01779 l -2.651092,-4.261319 z m 8.193468,3.896571 0.827354,-2.330825 h 0.01779 l 0.800665,2.330825 z m 0.133444,-3.896571 -2.401995,6.351945 h 1.405612 l 0.498192,-1.414509 h 2.375307 l 0.480399,1.414509 h 1.450093 l -2.375306,-6.351945 z m 4.359172,0 v 6.351945 h 1.307753 v -4.457037 h 0.01779 l 1.556849,4.457037 h 1.07645 l 1.556849,-4.501518 h 0.01779 v 4.501518 h 1.307753 v -6.351945 h -1.966078 l -1.405612,4.368074 h -0.01779 l -1.485679,-4.368074 z m 8.068922,0 v 6.351945 h 4.821784 v -1.174309 h -3.425068 v -1.556849 h 3.078113 v -1.085347 h -3.078113 v -1.361131 h 3.353898 v -1.174309 z m 8.237961,0 v 6.351945 h 1.396716 v -6.351945 z m 3.576307,4.243526 h -1.352235 q -0.0089,0.587155 0.213511,1.014176 0.222407,0.427022 0.596051,0.702806 0.38254,0.275785 0.871835,0.400333 0.498192,0.133444 1.023073,0.133444 0.649428,0 1.138724,-0.151237 0.498191,-0.151236 0.827354,-0.418125 0.338058,-0.275785 0.507088,-0.649428 0.169029,-0.373644 0.169029,-0.809562 0,-0.533777 -0.231303,-0.871835 -0.222407,-0.346955 -0.533777,-0.55157 -0.31137,-0.204614 -0.631636,-0.293577 -0.31137,-0.09786 -0.489296,-0.133444 -0.59605,-0.151237 -0.969694,-0.249096 -0.364748,-0.09786 -0.578258,-0.195718 -0.204615,-0.09786 -0.275785,-0.213511 -0.07117,-0.115652 -0.07117,-0.302473 0,-0.204615 0.08896,-0.338059 0.08896,-0.133444 0.222407,-0.222407 0.14234,-0.08896 0.311369,-0.124548 0.16903,-0.03559 0.338059,-0.03559 0.257992,0 0.471503,0.04448 0.222407,0.04448 0.391436,0.151237 0.16903,0.106755 0.266889,0.293577 0.106755,0.186822 0.124548,0.471503 h 1.352234 q 0,-0.551569 -0.213511,-0.934109 -0.204614,-0.391437 -0.560465,-0.640532 -0.355851,-0.249096 -0.818458,-0.355852 -0.45371,-0.115651 -0.951902,-0.115651 -0.427021,0 -0.854043,0.115651 -0.427021,0.115652 -0.76508,0.355852 -0.338059,0.240199 -0.551569,0.604947 -0.204615,0.355851 -0.204615,0.845146 0,0.435918 0.160133,0.747288 0.16903,0.302473 0.435918,0.507088 0.266888,0.204614 0.604947,0.338058 0.338059,0.124548 0.69391,0.213511 0.346955,0.09786 0.685013,0.177926 0.338059,0.08007 0.604948,0.186822 0.266888,0.106755 0.427021,0.266888 0.169029,0.160133 0.169029,0.418125 0,0.2402 -0.124548,0.400333 -0.124548,0.151237 -0.311369,0.240199 -0.186822,0.08896 -0.400333,0.124548 -0.213511,0.02669 -0.400333,0.02669 -0.275784,0 -0.533776,-0.06227 -0.257993,-0.07117 -0.453711,-0.204614 -0.186822,-0.142341 -0.302473,-0.364748 -0.115652,-0.222407 -0.115652,-0.542673 z"
       id="text2"
       aria-label="MY NAME IS" /><path
       id="rect2-7"
       style="fill:none;stroke:#a91334;stroke-width:2.70536;stroke-linecap:square"
       d="M 1.3538751,28.911797 1.3527925,10.318252 C 1.3526001,7.013324 3.8932312,4.3526799 7.0488425,4.3526799 h 3.1e-6 49.8104724 c 3.15561,0 5.680819,2.6606794 5.696048,5.9655721 l 0.08571,18.60048"
       sodipodi:nodetypes="csssssc" /><path
       style="font-weight:bold;font-size:32px;line-height:1;font-family:'Just Another Hand';-inkscape-font-specification:'Just Another Hand Bold';stroke-width:2.471;stroke-linecap:square"
       d="m 21.054597,38.532101 q 0,1.546875 -0.5,3.109375 -0.484375,1.5625 -1.375,2.921875 -0.875,1.359375 -2.109375,2.421875 -1.234375,1.0625 -2.703125,1.609375 0.09375,1.296875 0.21875,2.578125 0.125,1.28125 0.34375,2.578125 0.04687,0.234375 0.09375,0.484375 0.0625,0.25 0.0625,0.515625 0,0.40625 -0.203125,0.546875 -0.203125,0.140625 -0.578125,0.140625 -0.265625,0 -0.640625,-0.0625 -0.375,-0.0625 -0.640625,-0.1875 -0.3125,-0.171875 -0.421875,-0.34375 -0.09375,-0.1875 -0.140625,-0.5 -0.265625,-1.328125 -0.328125,-2.65625 -0.04687,-1.328125 -0.140625,-2.65625 -0.3125,-0.03125 -0.515625,-0.15625 -0.203125,-0.140625 -0.203125,-0.46875 0,-0.3125 0.171875,-0.65625 0.1875,-0.34375 0.421875,-0.53125 -0.140625,-2.90625 -0.125,-5.765625 0.03125,-2.859375 0,-5.765625 -0.07813,0.03125 -0.140625,0.04687 -0.0625,0.01563 -0.140625,0.01563 -0.171875,0 -0.28125,-0.07813 -0.109375,-0.09375 -0.1875,-0.21875 -0.0625,-0.125 -0.09375,-0.265625 -0.03125,-0.15625 -0.03125,-0.28125 0,-0.46875 0.234375,-0.671875 0.234375,-0.21875 0.640625,-0.390625 0,-0.171875 0,-0.390625 0.01563,-0.234375 0.0625,-0.421875 0.0625,-0.203125 0.1875,-0.328125 0.125,-0.140625 0.375,-0.140625 0.40625,0 0.78125,0.15625 0.375,0.15625 0.5625,0.53125 0.546875,-0.09375 1.0625,-0.171875 0.515625,-0.07813 1.0625,-0.07813 1.234375,0 2.203125,0.421875 0.96875,0.40625 1.640625,1.15625 0.671875,0.734375 1.015625,1.75 0.359375,1.015625 0.359375,2.203125 z m -2.34375,-0.28125 q 0,-0.71875 -0.1875,-1.34375 -0.1875,-0.640625 -0.5625,-1.09375 -0.375,-0.46875 -0.953125,-0.734375 -0.578125,-0.265625 -1.359375,-0.265625 -0.421875,0 -0.859375,0.0625 -0.421875,0.0625 -0.828125,0.1875 0,2.859375 0.03125,5.671875 0.04687,2.8125 0.21875,5.640625 1,-0.515625 1.828125,-1.4375 0.828125,-0.921875 1.421875,-2.03125 0.59375,-1.125 0.921875,-2.328125 0.328125,-1.21875 0.328125,-2.328125 z m 7.859375,7.21875 q 0,0.125 0,0.25 0,0.109375 -0.03125,0.21875 0.234375,0.84375 0.421875,1.703125 0.203125,0.84375 0.390625,1.6875 0.09375,-0.953125 0.15625,-1.90625 0.07813,-0.96875 0.07813,-1.921875 0,-0.9375 -0.0625,-1.90625 -0.0625,-0.984375 -0.3125,-1.875 l -0.0625,-0.21875 q -0.03125,-0.07813 -0.04687,-0.171875 -0.01563,-0.09375 -0.01563,-0.1875 0,-0.171875 0.07813,-0.265625 0.09375,-0.109375 0.21875,-0.15625 0.125,-0.04687 0.28125,-0.0625 0.15625,-0.01563 0.28125,-0.01563 0.390625,0 0.8125,0.09375 0.28125,0.07813 0.453125,0.234375 0.171875,0.140625 0.25,0.34375 0.09375,0.203125 0.125,0.453125 0.03125,0.234375 0.04687,0.484375 0,0.03125 0,0.0625 0.01563,0.03125 0.01563,0.0625 0.07813,0.6875 0.109375,1.390625 0.04687,0.6875 0.04687,1.359375 0,2.09375 -0.25,4.171875 -0.234375,2.078125 -0.578125,4.125 -0.04687,0.3125 -0.140625,0.640625 -0.07813,0.328125 -0.234375,0.609375 -0.15625,0.28125 -0.40625,0.46875 -0.25,0.171875 -0.625,0.171875 -0.421875,0 -0.6875,-0.1875 -0.265625,-0.203125 -0.4375,-0.5 -0.15625,-0.3125 -0.234375,-0.6875 -0.07813,-0.375 -0.125,-0.734375 -0.03125,-0.171875 -0.0625,-0.3125 -0.01563,-0.140625 -0.04687,-0.265625 l -0.4375,-1.9375 q -0.125,0.4375 -0.34375,1.109375 -0.203125,0.65625 -0.453125,1.328125 -0.234375,0.671875 -0.484375,1.21875 -0.234375,0.546875 -0.390625,0.75 -0.171875,0.203125 -0.4375,0.3125 -0.265625,0.125 -0.53125,0.125 -0.46875,0 -0.8125,-0.296875 -0.3125,-0.3125 -0.40625,-0.71875 -0.09375,-0.40625 -0.140625,-0.8125 0,-0.03125 -0.01563,-0.07813 0,-0.04687 0,-0.07813 -0.234375,-1.71875 -0.34375,-3.484375 -0.109375,-1.78125 -0.109375,-3.546875 v -2.59375 q 0,-0.140625 0.01563,-0.296875 0.01563,-0.15625 0.0625,-0.28125 0.0625,-0.140625 0.171875,-0.21875 0.125,-0.07813 0.34375,-0.07813 0.578125,0 0.953125,0.34375 0.375,0.34375 0.421875,0.90625 0.04687,0.75 0.0625,1.515625 0.03125,0.765625 0.04687,1.515625 0.01563,0.859375 0.01563,1.671875 0.01563,0.796875 0.109375,1.6875 0.1875,-0.609375 0.359375,-1.265625 0.171875,-0.65625 0.296875,-1.328125 0.140625,-0.671875 0.21875,-1.328125 0.09375,-0.671875 0.09375,-1.296875 0,-0.07813 -0.01563,-0.125 0,-0.0625 0,-0.140625 -0.01563,-0.07813 -0.01563,-0.15625 0,-0.07813 0,-0.15625 0,-0.390625 0.171875,-0.578125 0.171875,-0.1875 0.59375,-0.1875 0.15625,0 0.375,0.04687 0.234375,0.04687 0.453125,0.140625 0.234375,0.09375 0.421875,0.234375 0.1875,0.140625 0.25,0.3125 h -0.01563 q 0.07813,0.15625 0.09375,0.296875 0.01563,0.140625 0.01563,0.3125 z m 7.25,9.796875 q 0,0.359375 -0.21875,0.46875 -0.203125,0.109375 -0.5,0.109375 -0.265625,0 -0.53125,-0.04687 -0.25,-0.03125 -0.484375,-0.140625 -0.21875,-0.109375 -0.390625,-0.296875 -0.15625,-0.1875 -0.21875,-0.484375 -0.21875,-0.9375 -0.25,-1.828125 -0.03125,-0.90625 -0.03125,-1.859375 v -1.921875 q 0,-1.3125 0.109375,-2.71875 0.109375,-1.421875 0.234375,-2.734375 0,-0.04687 0.01563,-0.109375 0.01563,-0.0625 0.01563,-0.09375 0.01563,-0.171875 0.04687,-0.375 0.03125,-0.203125 0.09375,-0.359375 0.07813,-0.171875 0.203125,-0.28125 0.140625,-0.109375 0.359375,-0.109375 0.25,0 0.46875,0.109375 0.234375,0.09375 0.40625,0.265625 0.171875,0.15625 0.265625,0.390625 0.109375,0.234375 0.109375,0.484375 0,0.265625 -0.01563,0.59375 -0.01563,0.3125 -0.04687,0.59375 0,0.07813 -0.01563,0.171875 0,0.09375 -0.01563,0.171875 0.21875,-0.4375 0.5,-0.90625 0.28125,-0.484375 0.640625,-0.875 0.375,-0.40625 0.8125,-0.65625 0.453125,-0.25 1,-0.25 0.453125,0 0.75,0.140625 0.296875,0.140625 0.46875,0.40625 0.1875,0.25 0.25,0.59375 0.07813,0.34375 0.07813,0.734375 0,0.53125 -0.03125,1.078125 -0.03125,0.53125 -0.0625,1.0625 -0.04687,0.546875 -0.07813,1.078125 -0.03125,0.53125 -0.03125,1.078125 0,0.65625 0.03125,1.359375 0.03125,0.6875 0.09375,1.328125 0.0625,0.625 0.140625,1.140625 0.07813,0.5 0.15625,0.78125 0.0625,0.234375 0.125,0.546875 0.07813,0.296875 0.140625,0.625 0.07813,0.3125 0.125,0.609375 0.04687,0.296875 0.04687,0.53125 0,0.34375 -0.28125,0.4375 -0.265625,0.09375 -0.53125,0.09375 -0.265625,0 -0.609375,-0.04687 -0.328125,-0.03125 -0.59375,-0.171875 -0.328125,-0.234375 -0.4375,-0.65625 -0.09375,-0.421875 -0.125,-0.828125 l -0.04687,-0.421875 q -0.04687,-0.375 -0.125,-0.984375 -0.07813,-0.609375 -0.15625,-1.34375 -0.0625,-0.734375 -0.109375,-1.515625 -0.04687,-0.796875 -0.04687,-1.546875 0,-0.671875 0.04687,-1.296875 0.0625,-0.625 0.125,-1.265625 0.03125,-0.328125 0.04687,-0.53125 0.01563,-0.203125 0.04687,-0.53125 -0.3125,0.5 -0.625,1.171875 -0.3125,0.671875 -0.59375,1.40625 -0.28125,0.71875 -0.515625,1.40625 -0.21875,0.6875 -0.34375,1.203125 l -0.09375,0.34375 q -0.07813,0.25 -0.140625,0.5 -0.04687,0.25 -0.04687,0.46875 0,0.28125 0.03125,0.65625 0.03125,0.359375 0.07813,0.6875 0.04687,0.390625 0.109375,0.796875 0,0.03125 0.03125,0.203125 0.03125,0.171875 0.0625,0.40625 0.03125,0.234375 0.04687,0.5 0.03125,0.25 0.03125,0.453125 z m 11.984375,-2.78125 q 0,0.46875 -0.265625,0.96875 -0.25,0.5 -0.65625,0.921875 -0.40625,0.40625 -0.9375,0.671875 -0.515625,0.265625 -1.03125,0.265625 -0.734375,0 -1.265625,-0.28125 -0.53125,-0.296875 -0.921875,-0.78125 -0.390625,-0.5 -0.640625,-1.125 -0.234375,-0.625 -0.375,-1.28125 -0.140625,-0.671875 -0.203125,-1.328125 -0.04687,-0.671875 -0.04687,-1.21875 0,-0.46875 0.04687,-1.109375 0.0625,-0.640625 0.1875,-1.328125 0.140625,-0.6875 0.375,-1.359375 0.234375,-0.671875 0.578125,-1.203125 0.359375,-0.53125 0.84375,-0.859375 0.5,-0.328125 1.140625,-0.328125 0.5,0 0.890625,0.203125 0.40625,0.203125 0.671875,0.546875 0.28125,0.328125 0.421875,0.765625 0.15625,0.4375 0.15625,0.90625 0,0.609375 -0.28125,1.328125 -0.28125,0.71875 -0.734375,1.390625 -0.4375,0.671875 -1,1.21875 -0.546875,0.53125 -1.09375,0.8125 0.03125,0.28125 0.125,0.828125 0.09375,0.53125 0.25,1.0625 0.171875,0.53125 0.390625,0.921875 0.234375,0.390625 0.546875,0.390625 0.15625,0 0.265625,-0.09375 0.125,-0.09375 0.21875,-0.25 0.09375,-0.15625 0.15625,-0.34375 0.07813,-0.1875 0.140625,-0.359375 l 0.09375,-0.21875 q 0.03125,-0.04687 0.03125,-0.0625 0.01563,-0.01563 0.03125,-0.04687 0.109375,-0.203125 0.203125,-0.375 0.109375,-0.171875 0.296875,-0.296875 h -0.01563 q 0.0625,-0.0625 0.125,-0.0625 0.07813,-0.01563 0.140625,-0.01563 0.171875,0 0.375,0.109375 0.203125,0.109375 0.375,0.28125 0.171875,0.15625 0.28125,0.359375 0.109375,0.1875 0.109375,0.375 z m -3.09375,-6.890625 q 0,-0.15625 -0.01563,-0.328125 -0.01563,-0.171875 -0.07813,-0.296875 -0.21875,0.265625 -0.390625,0.640625 -0.15625,0.359375 -0.265625,0.765625 -0.109375,0.390625 -0.1875,0.796875 -0.0625,0.40625 -0.09375,0.75 0.40625,-0.484375 0.71875,-1.09375 0.3125,-0.625 0.3125,-1.234375 z m 10.796875,9.265625 q 0,0.171875 -0.07813,0.296875 -0.07813,0.109375 -0.203125,0.1875 -0.109375,0.0625 -0.25,0.09375 -0.125,0.03125 -0.25,0.03125 -0.1875,0 -0.40625,-0.04687 -0.21875,-0.04687 -0.4375,-0.125 -0.21875,-0.09375 -0.40625,-0.21875 -0.171875,-0.140625 -0.265625,-0.3125 -0.09375,-0.171875 -0.140625,-0.421875 -0.03125,-0.265625 -0.0625,-0.53125 -0.15625,0.375 -0.375,0.734375 -0.203125,0.359375 -0.5,0.640625 -0.296875,0.265625 -0.671875,0.421875 -0.359375,0.171875 -0.8125,0.171875 -0.796875,0 -1.296875,-0.375 -0.484375,-0.375 -0.765625,-0.9375 -0.265625,-0.578125 -0.359375,-1.25 -0.07813,-0.6875 -0.07813,-1.3125 0,-0.515625 0.04687,-1.171875 0.04687,-0.65625 0.125,-1.34375 0.07813,-0.6875 0.1875,-1.328125 0.109375,-0.65625 0.234375,-1.15625 0.15625,-0.578125 0.375,-1.265625 0.234375,-0.703125 0.578125,-1.296875 0.359375,-0.609375 0.875,-1.03125 0.515625,-0.421875 1.234375,-0.46875 -0.04687,-1.265625 -0.140625,-2.328125 -0.07813,-1.078125 -0.171875,-2.203125 l -0.15625,-1.734375 -0.0625,-0.625 q -0.03125,-0.25 -0.04687,-0.5 -0.01563,-0.265625 -0.01563,-0.515625 0,-0.359375 0.1875,-0.5 0.203125,-0.140625 0.515625,-0.140625 0.6875,0 1.046875,0.203125 0.359375,0.203125 0.5,0.546875 0.15625,0.34375 0.171875,0.8125 0.01563,0.453125 0.01563,0.984375 0,0.34375 0.07813,0.78125 l 0.07813,0.578125 0.125,1.59375 q 0.03125,0.375 0.0625,0.75 0.03125,0.375 0.0625,0.75 l 0.328125,3.359375 0.625,6.28125 0.04687,0.578125 q 0.0625,0.640625 0.109375,1.328125 0.0625,0.6875 0.21875,1.359375 0.04687,0.171875 0.07813,0.328125 0.04687,0.15625 0.04687,0.328125 z m -3.640625,-9.140625 q 0,-0.171875 -0.01563,-0.375 0,-0.21875 0,-0.40625 v -0.421875 q -0.109375,0.15625 -0.28125,0.4375 -0.171875,0.265625 -0.265625,0.484375 -0.25,0.546875 -0.453125,1.40625 -0.203125,0.84375 -0.359375,1.78125 -0.140625,0.921875 -0.21875,1.8125 -0.07813,0.875 -0.07813,1.46875 0,0.21875 0,0.5 0.01563,0.28125 0.0625,0.578125 0.04687,0.28125 0.140625,0.546875 0.09375,0.265625 0.25,0.4375 0.234375,-0.296875 0.421875,-0.90625 0.1875,-0.625 0.3125,-1.40625 0.140625,-0.796875 0.234375,-1.671875 0.09375,-0.875 0.140625,-1.6875 0.0625,-0.828125 0.07813,-1.5 0.03125,-0.6875 0.03125,-1.078125 z"
       id="text3"
       aria-label="Pwned" /></g></svg>
